<svg width="1025" height="967" viewBox="0 0 1025 967" fill="none" xmlns="http://www.w3.org/2000/svg">
<path d="M313.841 514.567C312.202 512.382 311.11 510.197 309.471 508.012C305.647 501.456 301.823 494.901 297.999 488.346C293.629 480.698 289.259 473.05 284.889 464.856L107.896 463.217C96.4241 442.459 73.4806 431.533 49.9908 435.357C47.2594 435.903 44.5281 436.45 41.2504 437.542C39.0653 438.088 37.4265 439.181 35.2414 440.274C10.6591 452.292 -1.35891 481.244 7.92774 507.465C17.7607 535.872 49.4446 550.621 77.8508 540.788C92.0539 535.871 102.979 524.946 108.988 512.382L313.841 514.567Z" fill="#509075"/>
<path d="M532.351 815.563C531.804 811.739 531.258 807.916 529.619 803.545C529.073 801.907 528.527 800.814 527.98 799.722C522.518 787.157 512.685 777.871 501.213 772.408L501.759 722.151L492.473 713.957C479.362 703.577 466.251 692.106 453.141 680.634L452.048 773.5C428.559 786.065 417.633 813.925 426.373 839.6C436.206 868.006 467.89 882.755 496.296 872.922C520.879 864.728 535.082 840.692 532.351 815.563Z" fill="#509075"/>
<path d="M277.787 240.883L130.84 94.4813C135.21 84.1021 136.849 72.0841 135.756 60.0661C135.21 55.1496 134.117 50.2331 132.479 45.3166C131.932 43.6778 131.386 42.039 130.293 40.4002C117.183 11.4477 86.5916 -4.39427 56.0002 1.06846C52.1763 1.61474 48.8987 2.70729 45.621 3.79983C42.8897 4.89238 40.7046 5.98492 37.9732 7.07747C7.38185 22.3731 -7.9138 58.4272 4.10422 91.2037C16.6685 126.711 56.0002 145.285 91.508 132.72C93.6931 132.174 95.8782 131.082 98.0633 129.989L226.984 258.91C243.372 252.354 260.307 246.345 277.787 240.883Z" fill="#509075"/>
<path d="M976.472 890.949C975.925 886.033 974.833 881.116 973.194 876.2C972.648 874.561 972.101 872.922 971.009 871.283C957.898 842.331 927.307 826.489 896.716 831.952C892.892 832.498 889.614 833.591 886.336 834.683C883.605 835.776 881.42 836.868 878.688 837.961C878.142 837.961 877.596 838.507 877.05 839.053L633.412 595.961C626.31 604.702 619.208 612.896 612.107 621.09C608.283 625.46 604.459 629.284 601.181 633.108L844.273 875.654C838.811 889.857 838.811 906.245 844.273 921.541C856.838 957.048 896.169 975.622 931.677 963.057C962.268 952.132 980.295 921.541 976.472 890.949Z" fill="#509075"/>
<path d="M1023.45 194.996C1022.36 187.894 1021.27 181.339 1018.54 174.237C1017.44 172.052 1016.9 169.321 1015.8 167.136C997.777 126.712 954.621 104.314 911.466 111.962C906.549 113.055 901.633 114.147 896.716 115.786C892.892 116.879 889.615 118.517 886.337 120.156C845.913 139.822 824.608 185.709 836.08 229.411L795.109 255.086H795.656L792.378 269.289C788.554 287.316 783.638 305.343 778.175 323.37L860.662 271.474C885.791 297.149 924.576 308.074 961.177 294.964C1003.79 281.307 1028.91 238.698 1023.45 194.996Z" fill="#509075"/>
<path d="M502.852 704.671C537.814 676.811 570.59 645.673 600.089 612.35C630.68 577.935 657.994 540.789 682.03 501.457C685.854 495.448 689.678 488.892 693.502 482.337C702.242 467.042 710.436 451.2 718.084 435.358C721.362 428.802 724.64 421.701 727.371 415.145C735.565 396.572 743.759 376.906 750.314 357.241C725.186 349.046 699.511 341.945 673.29 335.936C666.188 356.148 658.54 376.36 649.8 396.026C646.522 403.127 643.245 410.229 639.967 417.331C631.773 434.265 623.033 450.653 613.746 467.042C609.922 473.597 606.098 480.698 601.728 487.254C585.886 512.929 568.405 538.057 549.832 561.547C538.36 575.75 526.888 589.953 514.324 603.61C510.5 607.98 506.13 611.804 501.76 615.628L502.852 704.671Z" fill="#B58C2E"/>
<path d="M608.829 306.437C625.764 308.622 642.152 311.354 658.54 314.631C665.642 315.724 678.752 319.548 678.752 319.548C704.973 325.557 730.648 332.658 755.777 341.399C763.425 317.909 770.526 293.873 775.989 269.29C729.556 252.356 680.937 240.338 631.226 232.69C592.987 226.681 542.73 223.95 502.852 223.95V299.882C536.721 299.882 576.053 302.613 608.829 306.437Z" fill="#B58C2E"/>
<path d="M575.507 385.647C593.534 387.286 611.561 389.471 629.041 392.203C637.782 372.537 645.976 351.778 653.078 331.02C636.143 327.742 619.209 325.011 602.274 323.372C571.136 319.548 534.536 317.363 502.306 317.363V381.823C526.888 382.37 551.471 383.462 575.507 385.647Z" fill="#B58C2E"/>
<path d="M533.99 459.94C529.62 467.042 524.703 474.143 519.787 481.245C514.324 488.893 508.315 496.541 502.306 503.642V589.953C514.324 576.297 525.796 561.547 537.267 546.798C552.563 526.586 566.766 506.374 579.877 484.523C584.247 477.967 588.071 470.866 591.895 464.31C601.181 447.922 610.468 430.988 618.662 414.053C600.635 411.322 582.062 409.137 564.035 408.044C543.823 406.405 523.064 405.859 502.852 405.859V459.394C512.685 459.394 523.611 459.394 533.99 459.94Z" fill="#B58C2E"/>
<path d="M456.419 562.093C437.846 538.057 420.365 513.474 404.523 487.253C400.699 480.698 396.329 474.142 392.505 467.041C383.218 450.653 374.478 434.265 366.284 417.33C363.006 410.228 359.729 403.127 356.451 396.025C348.257 376.906 340.063 357.24 333.507 337.574C331.322 332.111 329.684 326.649 328.045 320.64C334.054 319.001 340.609 317.908 346.618 316.269C364.099 312.445 381.033 309.714 399.06 306.983C434.568 302.066 465.706 299.335 502.852 299.335V223.403C455.873 223.403 421.458 227.773 377.209 235.421C326.952 244.161 277.788 258.364 231.354 276.391C242.826 324.463 258.668 370.897 278.334 415.145C281.611 422.246 284.343 428.802 287.62 435.357C295.268 451.199 303.462 467.041 312.203 482.337C316.027 488.892 319.851 494.901 323.675 501.456C347.711 540.788 375.571 577.935 406.162 612.896C435.661 646.219 467.891 676.264 502.306 704.124V615.627C497.936 611.257 494.658 606.887 490.288 602.517C478.816 589.406 467.345 576.296 456.419 562.093Z" fill="#C89D3B"/>
<path d="M487.557 481.244C466.252 481.79 445.494 482.883 424.735 485.068C438.392 506.919 453.142 528.223 468.437 548.436C479.363 562.639 490.835 576.296 502.853 589.952V503.641C497.39 495.993 492.473 488.892 487.557 481.244Z" fill="#C89D3B"/>
<path d="M352.081 333.75C359.182 353.962 366.83 373.628 375.57 392.748C378.848 399.849 382.126 406.951 385.403 414.052C393.597 430.987 402.338 447.921 412.171 464.309C432.383 462.124 452.595 460.486 473.353 459.393C483.186 458.847 492.473 458.847 502.852 458.847V405.312C482.64 405.312 462.974 405.858 443.308 407.497C439.484 400.395 435.66 392.748 431.837 385.1C455.326 382.915 478.27 381.822 502.852 381.822V317.362C467.891 317.362 438.938 319.547 405.615 323.917C387.588 327.195 369.561 330.472 352.081 333.75Z" fill="#C89D3B"/>
</svg>
